<mxfile host="app.diagrams.net" agent="Mozilla/5.0 (Windows NT 10.0; Win64; x64) AppleWebKit/537.36 (KHTML, like Gecko) Chrome/135.0.0.0 Safari/537.36" version="26.2.14">
  <diagram id="WPIz-rZLcnUzUVRPVn5o" name="Сторінка-4">
    <mxGraphModel dx="1042" dy="596" grid="1" gridSize="10" guides="1" tooltips="1" connect="1" arrows="1" fold="1" page="1" pageScale="1" pageWidth="827" pageHeight="1169" math="0" shadow="0">
      <root>
        <mxCell id="0" />
        <mxCell id="1" parent="0" />
        <mxCell id="zkekQeOOoxpZoVoX9nbO-1" value="" style="ellipse;whiteSpace=wrap;html=1;aspect=fixed;fillColor=#000000;" parent="1" vertex="1">
          <mxGeometry x="375" y="80" width="30" height="30" as="geometry" />
        </mxCell>
        <mxCell id="zkekQeOOoxpZoVoX9nbO-2" value="Перевірка залишків&#xa;--&#xa;OnEntry/сканування складу&#xa;Do/підрахунок кількості&#xa;OnExit/формування звіту" style="rounded=1;whiteSpace=wrap;html=1;arcSize=40;align=center;verticalAlign=middle;fontStyle=1;fontSize=12;spacing=4;" parent="1" vertex="1">
          <mxGeometry x="300" y="160" width="180" height="100" as="geometry" />
        </mxCell>
        <mxCell id="zkekQeOOoxpZoVoX9nbO-3" value="Формування замовлення постачальнику&#xa;--&#xa;OnEntry/відкриття форми&#xa;Do/заповнення позицій&#xa;OnExit/розрахунок вартості" style="rounded=1;whiteSpace=wrap;html=1;arcSize=40;align=center;verticalAlign=middle;fontStyle=1;fontSize=12;spacing=4;" parent="1" vertex="1">
          <mxGeometry x="430" y="350" width="180" height="100" as="geometry" />
        </mxCell>
        <mxCell id="zkekQeOOoxpZoVoX9nbO-4" value="Узгодження замовлення&#xa;--&#xa;OnEntry/відправка на перевірку&#xa;Do/очікування підтвердження&#xa;OnExit/відправка постачальнику" style="rounded=1;whiteSpace=wrap;html=1;arcSize=40;align=center;verticalAlign=middle;fontStyle=1;fontSize=12;spacing=4;" parent="1" vertex="1">
          <mxGeometry x="110" y="420" width="190" height="120" as="geometry" />
        </mxCell>
        <mxCell id="zkekQeOOoxpZoVoX9nbO-5" value="Відстеження статусу замовлення&#xa;--&#xa;OnEntry/отримання трек-номеру&#xa;Do/перевірка статусу&#xa;OnExit/підготовка до прийому" style="rounded=1;whiteSpace=wrap;html=1;arcSize=40;align=center;verticalAlign=middle;fontStyle=1;fontSize=12;spacing=4;" parent="1" vertex="1">
          <mxGeometry x="340" y="585" width="180" height="135" as="geometry" />
        </mxCell>
        <mxCell id="zkekQeOOoxpZoVoX9nbO-6" value="Отримання товару&#xa;--&#xa;OnEntry/створення акту прийому&#xa;Do/перевірка кількості та якості&#xa;OnExit/підписання документів" style="rounded=1;whiteSpace=wrap;html=1;arcSize=40;align=center;verticalAlign=middle;fontStyle=1;fontSize=12;spacing=4;" parent="1" vertex="1">
          <mxGeometry x="520" y="810" width="180" height="130" as="geometry" />
        </mxCell>
        <mxCell id="zkekQeOOoxpZoVoX9nbO-7" value="Перевірка сертифікатів&#xa;--&#xa;OnEntry/сканування документів&#xa;Do/перевірка достовірності&#xa;OnExit/внесення в базу" style="rounded=1;whiteSpace=wrap;html=1;arcSize=40;align=center;verticalAlign=middle;fontStyle=1;fontSize=12;spacing=4;" parent="1" vertex="1">
          <mxGeometry x="234" y="890" width="180" height="100" as="geometry" />
        </mxCell>
        <mxCell id="zkekQeOOoxpZoVoX9nbO-8" value="Розміщення на складі&#xa;--&#xa;OnEntry/визначення місць зберігання&#xa;Do/сортування за умовами зберігання&#xa;OnExit/оновлення схеми складу" style="rounded=1;whiteSpace=wrap;html=1;arcSize=40;align=center;verticalAlign=middle;fontStyle=1;fontSize=12;spacing=4;" parent="1" vertex="1">
          <mxGeometry x="505" y="1090" width="210" height="150" as="geometry" />
        </mxCell>
        <mxCell id="zkekQeOOoxpZoVoX9nbO-9" value="Оновлення інформаційної системи&#xa;--&#xa;OnEntry/вхід в систему обліку&#xa;Do/внесення нових позицій&#xa;OnExit/оновлення цін та кількості" style="rounded=1;whiteSpace=wrap;html=1;arcSize=40;align=center;verticalAlign=middle;fontStyle=1;fontSize=12;spacing=4;" parent="1" vertex="1">
          <mxGeometry x="170" y="1250" width="220" height="130" as="geometry" />
        </mxCell>
        <mxCell id="zkekQeOOoxpZoVoX9nbO-10" value="" style="ellipse;html=1;shape=endState;fillColor=#000000;strokeColor=#000000;" parent="1" vertex="1">
          <mxGeometry x="260" y="1430" width="30" height="30" as="geometry" />
        </mxCell>
        <mxCell id="zkekQeOOoxpZoVoX9nbO-11" value="" style="endArrow=classic;html=1;rounded=0;exitX=0.5;exitY=1;exitDx=0;exitDy=0;entryX=0.5;entryY=0;entryDx=0;entryDy=0;" parent="1" source="zkekQeOOoxpZoVoX9nbO-1" target="zkekQeOOoxpZoVoX9nbO-2" edge="1">
          <mxGeometry width="50" height="50" relative="1" as="geometry">
            <mxPoint x="390" y="410" as="sourcePoint" />
            <mxPoint x="440" y="360" as="targetPoint" />
          </mxGeometry>
        </mxCell>
        <mxCell id="zkekQeOOoxpZoVoX9nbO-12" value="[залишок нижче мінімуму]/створення запиту" style="endArrow=classic;html=1;rounded=0;exitX=0.5;exitY=1;exitDx=0;exitDy=0;entryX=0.5;entryY=0;entryDx=0;entryDy=0;fillColor=#d5e8d4;strokeColor=#82b366;" parent="1" source="zkekQeOOoxpZoVoX9nbO-2" target="zkekQeOOoxpZoVoX9nbO-3" edge="1">
          <mxGeometry x="-0.2" y="20" width="50" height="50" relative="1" as="geometry">
            <mxPoint x="390" y="410" as="sourcePoint" />
            <mxPoint x="440" y="360" as="targetPoint" />
            <mxPoint as="offset" />
          </mxGeometry>
        </mxCell>
        <mxCell id="zkekQeOOoxpZoVoX9nbO-13" value="timer(щоденно)/сканування" style="curved=1;endArrow=classic;html=1;rounded=0;exitX=0;exitY=0.5;exitDx=0;exitDy=0;entryX=0;entryY=0.25;entryDx=0;entryDy=0;" parent="1" source="zkekQeOOoxpZoVoX9nbO-2" target="zkekQeOOoxpZoVoX9nbO-2" edge="1">
          <mxGeometry x="-0.4213" y="24" width="50" height="50" relative="1" as="geometry">
            <mxPoint x="260" y="150" as="sourcePoint" />
            <mxPoint x="260" y="100" as="targetPoint" />
            <Array as="points">
              <mxPoint x="250" y="150" />
              <mxPoint x="110" y="140" />
              <mxPoint x="250" y="125" />
            </Array>
            <mxPoint as="offset" />
          </mxGeometry>
        </mxCell>
        <mxCell id="zkekQeOOoxpZoVoX9nbO-14" value="submit(замовлення)/передача на перевірку" style="endArrow=classic;html=1;rounded=0;exitX=0.5;exitY=1;exitDx=0;exitDy=0;entryX=0.5;entryY=0;entryDx=0;entryDy=0;fillColor=#d5e8d4;strokeColor=#82b366;" parent="1" source="zkekQeOOoxpZoVoX9nbO-3" target="zkekQeOOoxpZoVoX9nbO-4" edge="1">
          <mxGeometry x="-0.2" y="20" width="50" height="50" relative="1" as="geometry">
            <mxPoint x="390" y="410" as="sourcePoint" />
            <mxPoint x="440" y="360" as="targetPoint" />
            <mxPoint as="offset" />
          </mxGeometry>
        </mxCell>
        <mxCell id="zkekQeOOoxpZoVoX9nbO-15" value="[замовлення підтверджено]/відправка" style="endArrow=classic;html=1;rounded=0;exitX=0.5;exitY=1;exitDx=0;exitDy=0;entryX=0.5;entryY=0;entryDx=0;entryDy=0;fillColor=#d5e8d4;strokeColor=#82b366;" parent="1" source="zkekQeOOoxpZoVoX9nbO-4" target="zkekQeOOoxpZoVoX9nbO-5" edge="1">
          <mxGeometry x="-0.2" y="20" width="50" height="50" relative="1" as="geometry">
            <mxPoint x="390" y="410" as="sourcePoint" />
            <mxPoint x="440" y="360" as="targetPoint" />
            <mxPoint as="offset" />
          </mxGeometry>
        </mxCell>
        <mxCell id="zkekQeOOoxpZoVoX9nbO-16" value="[потрібні корективи]/редагування" style="endArrow=classic;html=1;rounded=0;exitX=0;exitY=0.5;exitDx=0;exitDy=0;entryX=0;entryY=0.5;entryDx=0;entryDy=0;edgeStyle=orthogonalEdgeStyle;" parent="1" source="zkekQeOOoxpZoVoX9nbO-4" target="zkekQeOOoxpZoVoX9nbO-3" edge="1">
          <mxGeometry x="-0.087" width="50" height="50" relative="1" as="geometry">
            <mxPoint x="390" y="410" as="sourcePoint" />
            <mxPoint x="440" y="360" as="targetPoint" />
            <Array as="points">
              <mxPoint x="160" y="430" />
              <mxPoint x="160" y="290" />
            </Array>
            <mxPoint as="offset" />
          </mxGeometry>
        </mxCell>
        <mxCell id="zkekQeOOoxpZoVoX9nbO-17" value="check(оновлення)/запит інформації" style="curved=1;endArrow=classic;html=1;rounded=0;exitX=1;exitY=0.5;exitDx=0;exitDy=0;entryX=1;entryY=0.25;entryDx=0;entryDy=0;" parent="1" source="zkekQeOOoxpZoVoX9nbO-5" target="zkekQeOOoxpZoVoX9nbO-5" edge="1">
          <mxGeometry x="-0.2" y="20" width="50" height="50" relative="1" as="geometry">
            <mxPoint x="390" y="475" as="sourcePoint" />
            <mxPoint x="440" y="425" as="targetPoint" />
            <Array as="points">
              <mxPoint x="550" y="635" />
              <mxPoint x="630" y="620" />
              <mxPoint x="640" y="600" />
              <mxPoint x="570" y="584" />
            </Array>
            <mxPoint as="offset" />
          </mxGeometry>
        </mxCell>
        <mxCell id="zkekQeOOoxpZoVoX9nbO-18" value="notification(доставка)/підготовка документів" style="endArrow=classic;html=1;rounded=0;exitX=0.5;exitY=1;exitDx=0;exitDy=0;entryX=0.5;entryY=0;entryDx=0;entryDy=0;fillColor=#d5e8d4;strokeColor=#82b366;" parent="1" source="zkekQeOOoxpZoVoX9nbO-5" target="zkekQeOOoxpZoVoX9nbO-6" edge="1">
          <mxGeometry x="-0.2" y="20" width="50" height="50" relative="1" as="geometry">
            <mxPoint x="390" y="675" as="sourcePoint" />
            <mxPoint x="440" y="625" as="targetPoint" />
            <mxPoint as="offset" />
          </mxGeometry>
        </mxCell>
        <mxCell id="zkekQeOOoxpZoVoX9nbO-19" value="receipt(товар)/передача в контроль якості" style="endArrow=classic;html=1;rounded=0;exitX=0.5;exitY=1;exitDx=0;exitDy=0;entryX=0.5;entryY=0;entryDx=0;entryDy=0;fillColor=#d5e8d4;strokeColor=#82b366;" parent="1" source="zkekQeOOoxpZoVoX9nbO-6" target="zkekQeOOoxpZoVoX9nbO-7" edge="1">
          <mxGeometry x="-0.2" y="20" width="50" height="50" relative="1" as="geometry">
            <mxPoint x="390" y="840" as="sourcePoint" />
            <mxPoint x="440" y="790" as="targetPoint" />
            <mxPoint as="offset" />
          </mxGeometry>
        </mxCell>
        <mxCell id="zkekQeOOoxpZoVoX9nbO-20" value="[документи в порядку]/направлення на склад" style="endArrow=classic;html=1;rounded=0;exitX=0.5;exitY=1;exitDx=0;exitDy=0;entryX=0.5;entryY=0;entryDx=0;entryDy=0;fillColor=#d5e8d4;strokeColor=#82b366;" parent="1" source="zkekQeOOoxpZoVoX9nbO-7" target="zkekQeOOoxpZoVoX9nbO-8" edge="1">
          <mxGeometry x="-0.2" y="20" width="50" height="50" relative="1" as="geometry">
            <mxPoint x="390" y="980" as="sourcePoint" />
            <mxPoint x="440" y="930" as="targetPoint" />
            <mxPoint as="offset" />
          </mxGeometry>
        </mxCell>
        <mxCell id="zkekQeOOoxpZoVoX9nbO-21" value="[документи з порушеннями]/запит корекції" style="endArrow=classic;html=1;rounded=0;exitX=0;exitY=0.5;exitDx=0;exitDy=0;entryX=0;entryY=0.5;entryDx=0;entryDy=0;edgeStyle=orthogonalEdgeStyle;" parent="1" source="zkekQeOOoxpZoVoX9nbO-7" target="zkekQeOOoxpZoVoX9nbO-6" edge="1">
          <mxGeometry x="-0.1739" width="50" height="50" relative="1" as="geometry">
            <mxPoint x="390" y="940" as="sourcePoint" />
            <mxPoint x="440" y="890" as="targetPoint" />
            <Array as="points">
              <mxPoint x="180" y="1020" />
              <mxPoint x="180" y="840" />
            </Array>
            <mxPoint as="offset" />
          </mxGeometry>
        </mxCell>
        <mxCell id="zkekQeOOoxpZoVoX9nbO-22" value="store(товар)/формування звіту" style="endArrow=classic;html=1;rounded=0;exitX=0.5;exitY=1;exitDx=0;exitDy=0;entryX=0.5;entryY=0;entryDx=0;entryDy=0;fillColor=#d5e8d4;strokeColor=#82b366;" parent="1" source="zkekQeOOoxpZoVoX9nbO-8" target="zkekQeOOoxpZoVoX9nbO-9" edge="1">
          <mxGeometry x="-0.2" y="20" width="50" height="50" relative="1" as="geometry">
            <mxPoint x="390" y="1120" as="sourcePoint" />
            <mxPoint x="440" y="1070" as="targetPoint" />
            <mxPoint as="offset" />
          </mxGeometry>
        </mxCell>
        <mxCell id="zkekQeOOoxpZoVoX9nbO-23" value="" style="endArrow=classic;html=1;rounded=0;exitX=0.5;exitY=1;exitDx=0;exitDy=0;entryX=0.5;entryY=0;entryDx=0;entryDy=0;" parent="1" source="zkekQeOOoxpZoVoX9nbO-9" target="zkekQeOOoxpZoVoX9nbO-10" edge="1">
          <mxGeometry width="50" height="50" relative="1" as="geometry">
            <mxPoint x="390" y="1160" as="sourcePoint" />
            <mxPoint x="440" y="1110" as="targetPoint" />
          </mxGeometry>
        </mxCell>
      </root>
    </mxGraphModel>
  </diagram>
</mxfile>
